<svg width="135" height="135" viewBox="0 0 135 135" fill="none" xmlns="http://www.w3.org/2000/svg">
<path d="M0 90H12.2727V101.25H0V90ZM0 78.75H12.2727V90H0V78.75ZM0 67.5H12.2727V78.75H0V67.5ZM0 56.25H12.2727V67.5H0V56.25ZM12.2727 56.25H24.5455V67.5H12.2727V56.25ZM12.2727 67.5H24.5455V78.75H12.2727V67.5ZM12.2727 78.75H24.5455V90H12.2727V78.75ZM12.2727 90H24.5455V101.25H12.2727V90ZM12.2727 101.25H24.5455V112.5H12.2727V101.25ZM24.5455 101.25H36.8182V112.5H24.5455V101.25ZM24.5455 112.5H36.8182V123.75H24.5455V112.5ZM12.2727 112.5H24.5455V123.75H12.2727V112.5ZM36.8182 112.5H49.0909V123.75H36.8182V112.5ZM36.8182 123.75H49.0909V135H36.8182V123.75ZM49.0909 123.75H61.3636V135H49.0909V123.75ZM61.3636 123.75H73.6364V135H61.3636V123.75ZM73.6364 123.75H85.9091V135H73.6364V123.75ZM85.9091 123.75H98.1818V135H85.9091V123.75ZM98.1818 112.5H110.455V123.75H98.1818V112.5ZM110.455 112.5H122.727V123.75H110.455V112.5ZM98.1818 123.75H110.455V135H98.1818V123.75ZM122.727 101.25H135V112.5H122.727V101.25ZM0 45H12.2727V56.25H0V45ZM12.2727 45H24.5455V56.25H12.2727V45ZM12.2727 33.75H24.5455V45H12.2727V33.75ZM12.2727 22.5H24.5455V33.75H12.2727V22.5ZM24.5455 11.25H36.8182V22.5H24.5455V11.25ZM36.8182 0H49.0909V11.25H36.8182V0ZM36.8182 45H49.0909V56.25H36.8182V45ZM49.0909 45H61.3636V56.25H49.0909V45ZM36.8182 67.5H49.0909V78.75H36.8182V67.5ZM49.0909 67.5H61.3636V78.75H49.0909V67.5ZM61.3636 67.5H73.6364V78.75H61.3636V67.5ZM61.3636 45H73.6364V56.25H61.3636V45ZM61.3636 56.25H73.6364V67.5H61.3636V56.25ZM61.3636 78.75H73.6364V90H61.3636V78.75ZM73.6364 67.5H85.9091V78.75H73.6364V67.5ZM73.6364 56.25H85.9091V67.5H73.6364V56.25ZM73.6364 45H85.9091V56.25H73.6364V45ZM73.6364 78.75H85.9091V90H73.6364V78.75ZM49.0909 101.25H61.3636V112.5H49.0909V101.25ZM61.3636 101.25H73.6364V112.5H61.3636V101.25ZM61.3636 90H73.6364V101.25H61.3636V90ZM73.6364 90H85.9091V101.25H73.6364V90ZM98.1818 90H110.455V101.25H98.1818V90ZM98.1818 78.75H110.455V90H98.1818V78.75ZM98.1818 67.5H110.455V78.75H98.1818V67.5ZM98.1818 56.25H110.455V67.5H98.1818V56.25ZM98.1818 45H110.455V56.25H98.1818V45ZM98.1818 33.75H110.455V45H98.1818V33.75ZM73.6364 33.75H85.9091V45H73.6364V33.75ZM61.3636 33.75H73.6364V45H61.3636V33.75ZM61.3636 22.5H73.6364V33.75H61.3636V22.5ZM73.6364 22.5H85.9091V33.75H73.6364V22.5ZM73.6364 11.25H85.9091V22.5H73.6364V11.25ZM85.9091 0H98.1818V11.25H85.9091V0ZM98.1818 0H110.455V11.25H98.1818V0ZM98.1818 11.25H110.455V22.5H98.1818V11.25ZM110.455 11.25H122.727V22.5H110.455V11.25ZM122.727 0H135V11.25H122.727V0Z" fill="#121212"/>
</svg>
