<svg width="165" height="165" viewBox="0 0 165 165" fill="none" xmlns="http://www.w3.org/2000/svg">
<rect width="165" height="165" rx="12" fill="black"/>
<path d="M15 105H27.2727V116.25H15V105ZM15 93.75H27.2727V105H15V93.75ZM15 82.5H27.2727V93.75H15V82.5ZM15 71.25H27.2727V82.5H15V71.25ZM27.2727 71.25H39.5455V82.5H27.2727V71.25ZM27.2727 82.5H39.5455V93.75H27.2727V82.5ZM27.2727 93.75H39.5455V105H27.2727V93.75ZM27.2727 105H39.5455V116.25H27.2727V105ZM27.2727 116.25H39.5455V127.5H27.2727V116.25ZM39.5455 116.25H51.8182V127.5H39.5455V116.25ZM39.5455 127.5H51.8182V138.75H39.5455V127.5ZM27.2727 127.5H39.5455V138.75H27.2727V127.5ZM51.8182 127.5H64.0909V138.75H51.8182V127.5ZM51.8182 138.75H64.0909V150H51.8182V138.75ZM64.0909 138.75H76.3636V150H64.0909V138.75ZM76.3636 138.75H88.6364V150H76.3636V138.75ZM88.6364 138.75H100.909V150H88.6364V138.75ZM100.909 138.75H113.182V150H100.909V138.75ZM113.182 127.5H125.455V138.75H113.182V127.5ZM125.455 127.5H137.727V138.75H125.455V127.5ZM113.182 138.75H125.455V150H113.182V138.75ZM137.727 116.25H150V127.5H137.727V116.25ZM15 60H27.2727V71.25H15V60ZM27.2727 60H39.5455V71.25H27.2727V60ZM27.2727 48.75H39.5455V60H27.2727V48.75ZM27.2727 37.5H39.5455V48.75H27.2727V37.5ZM39.5455 26.25H51.8182V37.5H39.5455V26.25ZM51.8182 15H64.0909V26.25H51.8182V15ZM51.8182 60H64.0909V71.25H51.8182V60ZM64.0909 60H76.3636V71.25H64.0909V60ZM51.8182 82.5H64.0909V93.75H51.8182V82.5ZM64.0909 82.5H76.3636V93.75H64.0909V82.5ZM76.3636 82.5H88.6364V93.75H76.3636V82.5ZM76.3636 60H88.6364V71.25H76.3636V60ZM76.3636 71.25H88.6364V82.5H76.3636V71.25ZM76.3636 93.75H88.6364V105H76.3636V93.75ZM88.6364 82.5H100.909V93.75H88.6364V82.5ZM88.6364 71.25H100.909V82.5H88.6364V71.25ZM88.6364 60H100.909V71.25H88.6364V60ZM88.6364 93.75H100.909V105H88.6364V93.75ZM64.0909 116.25H76.3636V127.5H64.0909V116.25ZM76.3636 116.25H88.6364V127.5H76.3636V116.25ZM76.3636 105H88.6364V116.25H76.3636V105ZM88.6364 105H100.909V116.25H88.6364V105ZM113.182 105H125.455V116.25H113.182V105ZM113.182 93.75H125.455V105H113.182V93.75ZM113.182 82.5H125.455V93.75H113.182V82.5ZM113.182 71.25H125.455V82.5H113.182V71.25ZM113.182 60H125.455V71.25H113.182V60ZM113.182 48.75H125.455V60H113.182V48.75ZM88.6364 48.75H100.909V60H88.6364V48.75ZM76.3636 48.75H88.6364V60H76.3636V48.75ZM76.3636 37.5H88.6364V48.75H76.3636V37.5ZM88.6364 37.5H100.909V48.75H88.6364V37.5ZM88.6364 26.25H100.909V37.5H88.6364V26.25ZM100.909 15H113.182V26.25H100.909V15ZM113.182 15H125.455V26.25H113.182V15ZM113.182 26.25H125.455V37.5H113.182V26.25ZM125.455 26.25H137.727V37.5H125.455V26.25ZM137.727 15H150V26.25H137.727V15Z" fill="white"/>
</svg>
