<svg width="320" height="316" viewBox="0 0 320 316" fill="none" xmlns="http://www.w3.org/2000/svg" xmlns:xlink="http://www.w3.org/1999/xlink">
<rect opacity="0.12" width="261" height="261" fill="url(#pattern0_201_5663)"/>
<path d="M61.5 65.5V170.5H166.5V65.5H61.5ZM118.641 147.393C118.641 157.613 112.649 162.261 103.906 162.261C96.017 162.261 91.4355 158.173 89.108 153.245L97.144 148.38C98.6945 151.096 100.105 153.42 103.486 153.42C106.727 153.42 108.771 152.185 108.771 147.225V113.695H118.641V147.393ZM141.972 162.261C132.809 162.261 126.887 157.893 124 152.181L132.032 147.536C134.146 150.959 136.897 153.522 141.762 153.522C145.846 153.522 148.422 151.478 148.422 148.636C148.422 145.255 145.742 144.051 141.234 142.108L138.783 141.023C131.664 137.995 126.943 134.187 126.943 126.148C126.943 118.752 132.557 113.11 141.391 113.11C147.663 113.11 152.171 115.298 155.419 121L147.754 125.917C146.074 122.907 144.233 121.682 141.412 121.682C138.528 121.682 136.68 123.509 136.68 125.917C136.68 128.899 138.5 130.075 142.735 131.902L145.196 132.987C153.585 136.557 158.31 140.232 158.31 148.492C158.334 157.396 151.359 162.247 141.983 162.247L141.972 162.261Z" fill="black"/>
<g clip-path="url(#clip1_201_5663)">
<mask id="mask0_201_5663" style="mask-type:luminance" maskUnits="userSpaceOnUse" x="118" y="207" width="109" height="109">
<path d="M118 207H227V316H118V207Z" fill="white"/>
</mask>
<g mask="url(#mask0_201_5663)">
<path d="M172.109 207C144.432 207 146.158 219.063 146.158 219.063L146.19 231.561H172.595V235.313H135.712C135.712 235.313 118 233.292 118 261.359C118 289.427 133.455 288.428 133.455 288.428H142.675V275.407C142.675 275.407 142.18 259.874 157.889 259.874H184.077C184.077 259.874 198.792 260.11 198.792 245.577V221.542C198.792 221.542 201.026 207 172.109 207ZM157.549 215.402C160.174 215.402 162.299 217.537 162.299 220.18C162.299 222.819 160.174 224.953 157.549 224.953C154.924 224.953 152.798 222.819 152.798 220.18C152.798 217.537 154.919 215.402 157.549 215.402Z" fill="black"/>
<path d="M172.895 316C200.563 316 198.837 303.937 198.837 303.937L198.805 291.439H172.4V287.687H209.292C209.292 287.687 227.005 289.708 227.005 261.641C227.005 233.573 211.545 234.572 211.545 234.572H202.325V247.593C202.325 247.593 202.82 263.126 187.111 263.126H160.928C160.928 263.126 146.213 262.89 146.213 277.423V301.458C146.213 301.458 143.978 316 172.895 316ZM187.456 307.598C184.826 307.598 182.705 305.463 182.705 302.82C182.705 300.181 184.826 298.047 187.456 298.047C190.081 298.047 192.206 300.181 192.206 302.82C192.206 305.463 190.081 307.598 187.456 307.598Z" fill="black"/>
</g>
</g>
<path d="M301.245 162.887V168.566H295.559V174.256H301.245V179.946H306.935V174.256H312.625V168.566H306.935V162.887H301.245ZM288.339 162.887H282.646V168.566H276.956V174.256H282.646V179.946H288.335V174.256H294.025V168.566H288.335L288.339 162.887ZM274.865 182.158C272.406 186.529 268.571 189.964 263.957 191.929C259.343 193.895 254.209 194.28 249.354 193.024C244.499 191.769 240.194 188.944 237.111 184.989C234.028 181.034 232.338 176.171 232.305 171.156C232.273 166.141 233.898 161.256 236.93 157.261C239.961 153.266 244.228 150.385 249.067 149.067C253.905 147.748 259.044 148.066 263.683 149.971C268.322 151.875 272.201 155.26 274.717 159.598L294.593 148.167C289.558 139.457 281.788 132.653 272.489 128.813C263.19 124.973 252.883 124.311 243.169 126.93C233.455 129.549 224.878 135.303 218.771 143.297C212.663 151.292 209.366 161.079 209.392 171.14C209.418 181.201 212.766 190.971 218.915 198.934C225.064 206.896 233.671 212.605 243.398 215.174C253.125 217.743 263.428 217.027 272.707 213.139C281.986 209.251 289.721 202.407 294.711 193.671L274.865 182.158Z" fill="black"/>
<defs>
<clipPath id="clip1_201_5663">
<rect width="109" height="109" fill="white" transform="translate(118 207)"/>
</clipPath>
<pattern id="pattern0_201_5663" patternUnits="userSpaceOnUse" patternTransform="matrix(140 0 0 140 0 0)" preserveAspectRatio="none" viewBox="0 0 200 200" width="1" height="1">
<g id="pattern0_201_5663_inner">
<g clip-path="url(#clip0_201_5663)">
<line x1="25.5" y1="235" x2="25.5" y2="-2.18557e-08" stroke="black"/>
<line x1="55.5" y1="235" x2="55.5" y2="-2.18557e-08" stroke="black"/>
<line x1="85.5" y1="235" x2="85.5" y2="-2.18557e-08" stroke="black"/>
<line x1="115.5" y1="235" x2="115.5" y2="-2.18557e-08" stroke="black"/>
<line x1="145.5" y1="235" x2="145.5" y2="-2.18557e-08" stroke="black"/>
<line x1="175.5" y1="235" x2="175.5" y2="-2.18557e-08" stroke="black"/>
<line y1="26.5" x2="503" y2="26.5" stroke="black"/>
<line y1="56.5" x2="503" y2="56.5" stroke="black"/>
<line y1="91.5" x2="503" y2="91.5" stroke="black"/>
<line y1="120.5" x2="503" y2="120.5" stroke="black"/>
<line y1="147.5" x2="503" y2="147.5" stroke="black"/>
<line y1="174.5" x2="503" y2="174.5" stroke="black"/>
</g>
</g>
</pattern><clipPath id="clip0_201_5663">
<rect width="200" height="200" fill="white"/>
</clipPath>
</defs>
</svg>
