<svg width="538" height="658" viewBox="0 0 538 658" fill="none" xmlns="http://www.w3.org/2000/svg" xmlns:xlink="http://www.w3.org/1999/xlink">
<path opacity="0.12" d="M537.168 657.079C536.689 656.476 500.729 547.124 422.778 551.106C344.368 555.113 348.096 637.283 293.666 608.558C239.237 579.832 250.926 532.689 210.421 560.31C169.916 587.93 168.09 593.769 110.77 589.125C74.0917 586.153 30.3796 621.725 0 657.079H537.168Z" fill="url(#pattern0_206_5602)"/>
<path d="M345 500C345 496.134 348.134 493 352 493H428V657H345V500Z" fill="black"/>
<path d="M109 378C109 374.134 112.134 371 116 371H192V657H109V378Z" fill="black"/>
<path d="M277.009 98.0162V162H269.261V106.139H268.886L253.265 116.511V108.638L269.261 98.0162H277.009Z" fill="black"/>
<path d="M231.839 190C231.839 186.134 234.973 183 238.839 183H314.839V657H231.839V190Z" fill="black"/>
<path d="M138.571 339V334.27L156.335 314.824C158.42 312.546 160.137 310.567 161.486 308.885C162.835 307.186 163.833 305.591 164.482 304.102C165.147 302.596 165.48 301.019 165.48 299.372C165.48 297.48 165.025 295.842 164.114 294.458C163.22 293.074 161.994 292.005 160.435 291.252C158.875 290.499 157.124 290.122 155.179 290.122C153.112 290.122 151.307 290.551 149.766 291.41C148.241 292.251 147.059 293.433 146.218 294.957C145.395 296.482 144.983 298.268 144.983 300.318H138.781C138.781 297.165 139.508 294.397 140.962 292.014C142.416 289.632 144.396 287.775 146.901 286.443C149.424 285.112 152.253 284.446 155.389 284.446C158.543 284.446 161.337 285.112 163.772 286.443C166.207 287.775 168.117 289.57 169.501 291.83C170.885 294.09 171.577 296.604 171.577 299.372C171.577 301.352 171.218 303.288 170.499 305.18C169.799 307.054 168.572 309.148 166.82 311.46C165.086 313.755 162.677 316.558 159.594 319.869L147.506 332.798V333.219H172.523V339H138.571Z" fill="black"/>
<path d="M385.656 474.547C383.078 474.547 380.78 474.104 378.762 473.219C376.757 472.333 375.161 471.103 373.977 469.527C372.805 467.939 372.167 466.096 372.063 464H376.984C377.089 465.289 377.531 466.402 378.312 467.34C379.094 468.264 380.116 468.98 381.379 469.488C382.642 469.996 384.042 470.25 385.578 470.25C387.297 470.25 388.82 469.951 390.148 469.352C391.477 468.753 392.518 467.919 393.273 466.852C394.029 465.784 394.406 464.547 394.406 463.141C394.406 461.669 394.042 460.374 393.313 459.254C392.583 458.121 391.516 457.236 390.109 456.598C388.703 455.96 386.984 455.641 384.953 455.641H381.75V451.344H384.953C386.542 451.344 387.935 451.057 389.133 450.484C390.344 449.911 391.288 449.104 391.965 448.062C392.655 447.021 393 445.797 393 444.391C393 443.036 392.701 441.858 392.102 440.855C391.503 439.853 390.656 439.072 389.563 438.512C388.482 437.952 387.206 437.672 385.734 437.672C384.354 437.672 383.052 437.926 381.828 438.434C380.617 438.928 379.628 439.651 378.859 440.602C378.091 441.539 377.674 442.672 377.609 444H372.922C373 441.904 373.632 440.068 374.816 438.492C376.001 436.904 377.551 435.667 379.465 434.781C381.392 433.896 383.508 433.453 385.813 433.453C388.286 433.453 390.409 433.954 392.18 434.957C393.951 435.947 395.311 437.255 396.262 438.883C397.212 440.51 397.688 442.268 397.688 444.156C397.688 446.409 397.095 448.329 395.91 449.918C394.738 451.507 393.143 452.607 391.125 453.219V453.531C393.651 453.948 395.624 455.022 397.043 456.754C398.462 458.473 399.172 460.602 399.172 463.141C399.172 465.315 398.579 467.268 397.395 469C396.223 470.719 394.621 472.073 392.59 473.062C390.559 474.052 388.247 474.547 385.656 474.547Z" fill="black"/>
<path d="M169.835 40.229C170.406 39.7626 171.069 39.4204 171.782 39.2244C172.494 39.0283 173.24 38.9827 173.971 39.0906C174.702 39.1985 175.402 39.4574 176.027 39.8507C176.651 40.2439 177.186 40.7628 177.596 41.374C178.006 41.9851 178.283 42.675 178.409 43.399C178.535 44.1231 178.507 44.8654 178.327 45.5781C178.147 46.2908 177.819 46.958 177.364 47.5369C176.908 48.1158 176.336 48.5935 175.684 48.9393L175.059 49.2188L148.826 58.9853C148.245 59.2027 147.795 58.569 148.051 58.1155L148.207 57.9291L169.835 40.229ZM165.736 12.7064C166.401 13.0887 166.975 13.6106 167.417 14.2358C167.86 14.861 168.16 15.5745 168.296 16.3266C168.433 17.0787 168.403 17.8514 168.209 18.5909C168.015 19.3305 167.662 20.0192 167.173 20.609L149.369 42.1052C148.926 42.6519 148.057 42.1549 148.307 41.4964L158.131 15.4152C158.4 14.6994 158.824 14.0507 159.372 13.5142C159.919 12.9776 160.578 12.5661 161.302 12.3083C162.025 12.0505 162.797 11.9526 163.563 12.0213C164.328 12.0901 165.07 12.3239 165.736 12.7064ZM190.819 61.3213C191.579 61.1929 192.357 61.2307 193.1 61.4322C193.843 61.6337 194.533 61.9941 195.121 62.488C195.71 62.982 196.183 63.5977 196.507 64.2922C196.832 64.9867 197 65.7432 197 66.5089C197 67.2747 196.832 68.0312 196.507 68.7257C196.183 69.4202 195.71 70.0359 195.121 70.5299C194.533 71.0238 193.843 71.3842 193.1 71.5857C192.357 71.7872 191.579 71.825 190.819 71.6966L163.186 67.124C162.486 67.006 162.486 66.0119 163.186 65.9001L190.819 61.3213ZM148.301 91.5215C148.088 90.95 148.726 90.4964 149.188 90.7512L149.376 90.9127L167.173 112.409C167.639 112.977 167.981 113.636 168.177 114.343C168.372 115.05 168.416 115.79 168.307 116.515C168.198 117.24 167.938 117.935 167.543 118.554C167.148 119.174 166.627 119.704 166.014 120.112C165.4 120.519 164.708 120.795 163.982 120.921C163.255 121.046 162.51 121.02 161.794 120.843C161.078 120.666 160.408 120.342 159.825 119.892C159.243 119.442 158.761 118.876 158.412 118.23L158.131 117.603L148.301 91.5215ZM148.826 74.0326L175.059 83.7991C175.778 84.0678 176.43 84.489 176.969 85.0334C177.508 85.5778 177.922 86.2324 178.181 86.9516C178.44 87.6709 178.538 88.4376 178.469 89.1984C178.4 89.9592 178.165 90.696 177.781 91.3575C177.396 92.019 176.871 92.5893 176.243 93.0289C175.615 93.4684 174.897 93.7667 174.141 93.9029C173.385 94.0391 172.608 94.01 171.865 93.8177C171.121 93.6253 170.428 93.2743 169.835 92.7889L148.213 75.0888C147.663 74.6477 148.163 73.7841 148.826 74.0326ZM120.674 91.5215L110.85 117.603C110.578 118.316 110.154 118.962 109.606 119.495C109.059 120.029 108.401 120.438 107.678 120.694C106.956 120.95 106.186 121.047 105.422 120.978C104.658 120.909 103.919 120.676 103.254 120.295C102.59 119.914 102.017 119.393 101.575 118.77C101.133 118.147 100.833 117.436 100.695 116.686C100.556 115.936 100.584 115.165 100.775 114.426C100.966 113.688 101.316 112.999 101.802 112.409L119.611 90.9127C120.055 90.366 120.924 90.863 120.674 91.5215ZM120.774 75.0888L99.1458 92.7952C98.5518 93.2776 97.8594 93.6258 97.1166 93.8159C96.3739 94.0059 95.5984 94.0332 94.8439 93.8958C94.0895 93.7585 93.3741 93.4597 92.7473 93.0203C92.1204 92.5808 91.5971 92.0112 91.2136 91.3508C90.8301 90.6904 90.5956 89.9551 90.5262 89.1957C90.4569 88.4362 90.5543 87.6709 90.8119 86.9526C91.0694 86.2344 91.481 85.5803 92.0179 85.0358C92.5549 84.4913 93.2044 84.0693 93.9216 83.7991L120.155 74.0326C120.818 73.7841 121.317 74.6477 120.774 75.0888ZM72 66.5152C72 69.7644 74.937 72.2309 78.1616 71.7028L105.795 67.124C106.495 67.006 106.495 66.0119 105.795 65.9001L78.1616 61.3213C77.4037 61.1959 76.6274 61.2361 75.8867 61.4391C75.146 61.642 74.4587 62.0028 73.8724 62.4965C73.286 62.9901 72.8149 63.6047 72.4915 64.2976C72.1682 64.9905 72.0005 65.7451 72 66.5089V66.5152ZM91.1971 41.6579C91.5523 41.0462 92.0277 40.512 92.595 40.0869C93.1623 39.6617 93.8099 39.3545 94.4991 39.1835C95.1884 39.0125 95.9052 38.9812 96.6069 39.0914C97.3086 39.2016 97.9808 39.4512 98.5834 39.8251L99.1458 40.229L120.768 57.9291C121.249 58.3143 120.924 59.0226 120.393 59.0288L120.155 58.9915L93.9216 49.2188C93.2017 48.9505 92.5492 48.5295 92.0095 47.9851C91.4698 47.4406 91.056 46.7858 90.7966 46.0662C90.5373 45.3466 90.4388 44.5795 90.508 43.8182C90.5771 43.0569 90.8123 42.3197 91.1971 41.6579ZM110.85 15.4152L120.674 41.4964C120.924 42.1549 120.055 42.6519 119.611 42.1114L101.802 20.609C101.316 20.0185 100.966 19.3301 100.775 18.5916C100.584 17.8532 100.556 17.0822 100.695 16.3321C100.833 15.582 101.133 14.8708 101.575 14.2476C102.017 13.6244 102.59 13.1042 103.254 12.7229C103.919 12.3416 104.658 12.1084 105.422 12.0395C106.186 11.9705 106.956 12.0674 107.678 12.3235C108.401 12.5795 109.059 12.9887 109.606 13.5225C110.154 14.0563 110.578 14.7021 110.85 15.4152ZM129.272 22.9326C129.143 22.1777 129.181 21.4039 129.384 20.6651C129.587 19.9264 129.949 19.2405 130.446 18.6554C130.943 18.0703 131.562 17.6 132.261 17.2775C132.959 16.9549 133.72 16.7878 134.49 16.7878C135.261 16.7878 136.022 16.9549 136.72 17.2775C137.419 17.6 138.038 18.0703 138.535 18.6554C139.032 19.2405 139.394 19.9264 139.597 20.6651C139.799 21.4039 139.838 22.1777 139.708 22.9326L135.115 50.4055C134.997 51.1013 133.997 51.1013 133.884 50.4055L129.279 22.9326H129.272ZM139.708 110.085C139.838 110.84 139.799 111.614 139.597 112.353C139.394 113.092 139.032 113.777 138.535 114.363C138.038 114.948 137.419 115.418 136.72 115.74C136.022 116.063 135.261 116.23 134.49 116.23C133.72 116.23 132.959 116.063 132.261 115.74C131.562 115.418 130.943 114.948 130.446 114.363C129.949 113.777 129.587 113.092 129.384 112.353C129.181 111.614 129.143 110.84 129.272 110.085L133.878 82.6124C133.99 81.9166 134.99 81.9166 135.109 82.6124L139.708 110.085Z" fill="black"/>
<path d="M224.657 15.0209C224.958 14.7728 225.309 14.5907 225.685 14.4864C226.061 14.382 226.455 14.3578 226.841 14.4152C227.227 14.4726 227.596 14.6103 227.926 14.8196C228.256 15.0289 228.538 15.305 228.755 15.6302C228.971 15.9554 229.118 16.3225 229.184 16.7077C229.251 17.093 229.236 17.488 229.141 17.8672C229.046 18.2465 228.872 18.6015 228.632 18.9096C228.392 19.2176 228.09 19.4718 227.745 19.6557L227.415 19.8045L213.564 25.0013C213.257 25.1171 213.02 24.7799 213.155 24.5385L213.237 24.4394L224.657 15.0209ZM222.492 0.375884C222.844 0.579328 223.147 0.85704 223.38 1.18971C223.614 1.52237 223.772 1.90201 223.844 2.30221C223.917 2.70242 223.901 3.11358 223.799 3.50711C223.696 3.90063 223.509 4.26708 223.251 4.58096L213.851 16.0193C213.617 16.3102 213.158 16.0457 213.29 15.6953L218.477 1.81725C218.619 1.43638 218.843 1.0912 219.132 0.805696C219.421 0.520197 219.769 0.301241 220.151 0.16406C220.533 0.0268788 220.941 -0.0252335 221.345 0.0113479C221.749 0.0479293 222.141 0.172326 222.492 0.375884ZM235.737 26.2444C236.137 26.176 236.548 26.1962 236.941 26.3034C237.333 26.4106 237.697 26.6023 238.008 26.8652C238.319 27.128 238.569 27.4557 238.74 27.8252C238.911 28.1948 239 28.5973 239 29.0048C239 29.4122 238.911 29.8148 238.74 30.1843C238.569 30.5539 238.319 30.8815 238.008 31.1443C237.697 31.4072 237.333 31.5989 236.941 31.7061C236.548 31.8134 236.137 31.8335 235.737 31.7652L221.146 29.332C220.777 29.2692 220.777 28.7403 221.146 28.6808L235.737 26.2444ZM213.287 42.3142C213.175 42.0101 213.511 41.7687 213.755 41.9043L213.854 41.9902L223.251 53.4286C223.498 53.7309 223.678 54.0814 223.781 54.4577C223.884 54.8339 223.908 55.2277 223.85 55.6136C223.793 55.9995 223.655 56.3691 223.447 56.6986C223.238 57.0282 222.963 57.3104 222.639 57.5273C222.315 57.7441 221.95 57.8907 221.566 57.9577C221.183 58.0247 220.789 58.0106 220.411 57.9164C220.033 57.8221 219.679 57.6498 219.372 57.4104C219.064 57.171 218.81 56.8698 218.625 56.5262L218.477 56.1923L213.287 42.3142ZM213.564 33.0082L227.415 38.205C227.795 38.348 228.139 38.5721 228.424 38.8618C228.708 39.1515 228.927 39.4998 229.063 39.8825C229.2 40.2652 229.252 40.6732 229.216 41.078C229.179 41.4829 229.055 41.8749 228.852 42.2269C228.649 42.5789 228.372 42.8824 228.04 43.1163C227.708 43.3502 227.33 43.5089 226.931 43.5814C226.531 43.6539 226.121 43.6384 225.729 43.536C225.336 43.4336 224.97 43.2469 224.657 42.9886L213.241 33.5702C212.95 33.3355 213.214 32.8759 213.564 33.0082ZM198.7 42.3142L193.513 56.1923C193.369 56.5717 193.145 56.9153 192.856 57.1994C192.567 57.4835 192.22 57.7011 191.838 57.8374C191.457 57.9737 191.05 58.0252 190.647 57.9885C190.244 57.9518 189.853 57.8277 189.502 57.6249C189.152 57.422 188.849 57.1452 188.616 56.8136C188.382 56.4819 188.224 56.1035 188.151 55.7044C188.078 55.3052 188.092 54.895 188.193 54.502C188.294 54.1091 188.479 53.7428 188.735 53.4286L198.139 41.9902C198.373 41.6993 198.832 41.9638 198.7 42.3142ZM198.753 33.5702L187.333 42.9919C187.019 43.2486 186.654 43.4339 186.262 43.5351C185.869 43.6362 185.46 43.6507 185.062 43.5776C184.663 43.5045 184.286 43.3455 183.955 43.1117C183.624 42.8779 183.347 42.5748 183.145 42.2234C182.942 41.872 182.818 41.4807 182.782 41.0766C182.745 40.6725 182.797 40.2653 182.933 39.8831C183.069 39.5009 183.286 39.1528 183.569 38.8631C183.853 38.5734 184.196 38.3488 184.575 38.205L198.426 33.0082C198.776 32.8759 199.04 33.3355 198.753 33.5702ZM173 29.0081C173 30.737 174.551 32.0495 176.253 31.7685L190.844 29.332C191.213 29.2692 191.213 28.7403 190.844 28.6808L176.253 26.2444C175.853 26.1777 175.443 26.199 175.052 26.307C174.661 26.415 174.298 26.607 173.989 26.8697C173.679 27.1323 173.43 27.4594 173.26 27.8281C173.089 28.1968 173 28.5983 173 29.0048V29.0081ZM183.136 15.7813C183.324 15.4558 183.575 15.1715 183.874 14.9453C184.174 14.7191 184.516 14.5556 184.88 14.4646C185.243 14.3736 185.622 14.3569 185.992 14.4156C186.363 14.4743 186.718 14.607 187.036 14.806L187.333 15.0209L198.749 24.4394C199.003 24.6443 198.832 25.0212 198.551 25.0245L198.426 25.0047L184.575 19.8045C184.194 19.6617 183.85 19.4377 183.565 19.148C183.28 18.8583 183.062 18.5099 182.925 18.127C182.788 17.7441 182.736 17.3359 182.772 16.9308C182.809 16.5257 182.933 16.1334 183.136 15.7813ZM193.513 1.81725L198.7 15.6953C198.832 16.0457 198.373 16.3102 198.139 16.0226L188.735 4.58096C188.479 4.26671 188.294 3.90043 188.193 3.50748C188.092 3.11452 188.078 2.70428 188.151 2.30516C188.224 1.90604 188.382 1.52758 188.616 1.19597C188.849 0.864366 189.152 0.58754 189.502 0.384662C189.853 0.181783 190.244 0.0576991 190.647 0.0210008C191.05 -0.0156975 191.457 0.0358663 191.838 0.172123C192.22 0.308379 192.567 0.526073 192.856 0.810131C193.145 1.09419 193.369 1.43782 193.513 1.81725ZM203.24 5.81736C203.172 5.41567 203.192 5.0039 203.299 4.61081C203.406 4.21771 203.597 3.85275 203.859 3.5414C204.122 3.23006 204.449 2.97983 204.818 2.80819C205.186 2.63654 205.588 2.54761 205.995 2.54761C206.402 2.54761 206.803 2.63654 207.172 2.80819C207.541 2.97983 207.868 3.23006 208.13 3.5414C208.393 3.85275 208.584 4.21771 208.691 4.61081C208.798 5.0039 208.818 5.41567 208.75 5.81736L206.325 20.4359C206.262 20.8062 205.734 20.8062 205.675 20.4359L203.243 5.81736H203.24ZM208.75 52.1922C208.818 52.5939 208.798 53.0056 208.691 53.3987C208.584 53.7918 208.393 54.1568 208.13 54.4681C207.868 54.7795 207.541 55.0297 207.172 55.2013C206.803 55.373 206.402 55.4619 205.995 55.4619C205.588 55.4619 205.186 55.373 204.818 55.2013C204.449 55.0297 204.122 54.7795 203.859 54.4681C203.597 54.1568 203.406 53.7918 203.299 53.3987C203.192 53.0056 203.172 52.5939 203.24 52.1922L205.672 37.5736C205.731 37.2033 206.259 37.2033 206.322 37.5736L208.75 52.1922Z" fill="black"/>
<defs>
<pattern id="pattern0_206_5602" patternUnits="userSpaceOnUse" patternTransform="matrix(200 0 0 -200 0 657.079)" preserveAspectRatio="none" viewBox="0 0 200 200" width="1" height="1">
<g id="pattern0_206_5602_inner">
<g clip-path="url(#clip0_206_5602)">
<line x1="25.5" y1="235" x2="25.5" y2="-2.18557e-08" stroke="black"/>
<line x1="55.5" y1="235" x2="55.5" y2="-2.18557e-08" stroke="black"/>
<line x1="85.5" y1="235" x2="85.5" y2="-2.18557e-08" stroke="black"/>
<line x1="115.5" y1="235" x2="115.5" y2="-2.18557e-08" stroke="black"/>
<line x1="145.5" y1="235" x2="145.5" y2="-2.18557e-08" stroke="black"/>
<line x1="175.5" y1="235" x2="175.5" y2="-2.18557e-08" stroke="black"/>
<line y1="26.5" x2="503" y2="26.5" stroke="black"/>
<line y1="56.5" x2="503" y2="56.5" stroke="black"/>
<line y1="91.5" x2="503" y2="91.5" stroke="black"/>
<line y1="120.5" x2="503" y2="120.5" stroke="black"/>
<line y1="147.5" x2="503" y2="147.5" stroke="black"/>
<line y1="174.5" x2="503" y2="174.5" stroke="black"/>
</g>
</g>
</pattern><clipPath id="clip0_206_5602">
<rect width="200" height="200" fill="white"/>
</clipPath>
</defs>
</svg>
